<svg width="16" height="12" viewBox="0 0 16 12" fill="none" xmlns="http://www.w3.org/2000/svg">
<path d="M13.5446 1.14867C12.5246 0.702639 11.4313 0.372963 10.288 0.185501C10.2778 0.183605 10.2673 0.184827 10.2579 0.188996C10.2484 0.193166 10.2406 0.200077 10.2354 0.208772C10.0954 0.447302 9.93937 0.758231 9.83004 1.00387C8.61747 0.828198 7.38471 0.828198 6.17214 1.00387C6.05037 0.731637 5.91305 0.466193 5.76082 0.208772C5.75566 0.199969 5.74785 0.192902 5.73844 0.188513C5.72903 0.184124 5.71847 0.182622 5.70816 0.184208C4.56552 0.37167 3.47222 0.701346 2.45158 1.14802C2.4428 1.15159 2.43536 1.15768 2.43025 1.16548C0.355643 4.12286 -0.213007 7.00719 0.0663185 9.85533C0.0670958 9.86231 0.0693288 9.86906 0.0728816 9.87517C0.0764344 9.88128 0.0812327 9.88663 0.0869846 9.89088C1.29788 10.7457 2.64847 11.3969 4.0822 11.8172C4.0922 11.8202 4.10289 11.8202 4.11288 11.8172C4.12287 11.8142 4.13169 11.8084 4.1382 11.8004C4.44619 11.3996 4.72085 10.9762 4.95551 10.5315C4.96951 10.5056 4.95618 10.4746 4.92818 10.4643C4.49753 10.307 4.08026 10.1172 3.68021 9.8967C3.67303 9.89272 3.66697 9.88708 3.66259 9.88027C3.6582 9.87346 3.65563 9.8657 3.6551 9.85769C3.65457 9.84968 3.65611 9.84167 3.65956 9.83438C3.66301 9.82708 3.66827 9.82073 3.67488 9.8159C3.75888 9.75578 3.84288 9.69308 3.92287 9.63038C3.93007 9.62474 3.93875 9.62115 3.94793 9.62001C3.95711 9.61886 3.96644 9.62022 3.97487 9.62391C6.5928 10.7642 9.42805 10.7642 12.0153 9.62391C12.0238 9.62 12.0332 9.61847 12.0425 9.6195C12.0518 9.62053 12.0606 9.62407 12.068 9.62973C12.148 9.69308 12.2313 9.75578 12.316 9.8159C12.3226 9.82063 12.328 9.8269 12.3315 9.83413C12.3351 9.84136 12.3368 9.84934 12.3364 9.85734C12.336 9.86535 12.3335 9.87313 12.3293 9.88C12.325 9.88687 12.3191 9.89261 12.312 9.8967C11.9133 10.1191 11.4987 10.3072 11.0633 10.4636C11.0566 10.466 11.0506 10.4697 11.0455 10.4745C11.0404 10.4793 11.0364 10.4851 11.0338 10.4916C11.0312 10.498 11.0301 10.5049 11.0305 10.5117C11.0308 10.5186 11.0327 10.5254 11.036 10.5315C11.276 10.9756 11.5507 11.3983 11.8526 11.7998C11.8589 11.808 11.8677 11.8142 11.8777 11.8174C11.8877 11.8206 11.8985 11.8208 11.9086 11.8179C13.3448 11.3988 14.6976 10.7472 15.9099 9.89088C15.9158 9.88687 15.9207 9.88169 15.9244 9.87567C15.9281 9.86965 15.9304 9.86293 15.9312 9.85598C16.2645 6.5631 15.3725 3.70204 13.5653 1.16677C13.5608 1.15853 13.5535 1.15211 13.5446 1.14867ZM5.34683 8.12098C4.55886 8.12098 3.90887 7.42995 3.90887 6.58249C3.90887 5.73439 4.54619 5.04401 5.34683 5.04401C6.15348 5.04401 6.79746 5.74021 6.78479 6.58249C6.78479 7.4306 6.14748 8.12098 5.34683 8.12098ZM10.6633 8.12098C9.8747 8.12098 9.22539 7.42995 9.22539 6.58249C9.22539 5.73439 9.86203 5.04401 10.6633 5.04401C11.47 5.04401 12.114 5.74021 12.1013 6.58249C12.1013 7.4306 11.4707 8.12098 10.6633 8.12098Z" fill="white"/>
</svg>
