<svg width="16" height="14" viewBox="0 0 16 14" fill="none" xmlns="http://www.w3.org/2000/svg">
<path d="M16 2.00595C15.4116 2.26835 14.7795 2.44565 14.115 2.52579C14.8007 2.11289 15.3136 1.46302 15.5582 0.69746C14.914 1.08255 14.209 1.35361 13.4738 1.49886C12.9794 0.967572 12.3245 0.615423 11.6109 0.49709C10.8973 0.378758 10.1648 0.500862 9.52717 0.844445C8.88955 1.18803 8.38247 1.73387 8.08467 2.39722C7.78686 3.06057 7.71499 3.80432 7.88021 4.51299C6.57496 4.44703 5.29807 4.10559 4.13242 3.51081C2.96677 2.91604 1.93841 2.08124 1.11407 1.06057C0.832203 1.54993 0.670131 2.11729 0.670131 2.72154C0.669817 3.26549 0.802912 3.80112 1.05761 4.28089C1.3123 4.76066 1.68073 5.16974 2.13019 5.47184C1.60893 5.45515 1.09918 5.31339 0.643354 5.05837V5.10092C0.643302 5.86385 0.905511 6.60329 1.38549 7.19379C1.86547 7.78429 2.53365 8.18947 3.27667 8.34058C2.79312 8.47229 2.28615 8.49169 1.79406 8.39732C2.0037 9.05377 2.41205 9.62781 2.96194 10.0391C3.51184 10.4503 4.17575 10.6783 4.86074 10.6909C3.69794 11.6096 2.26188 12.1079 0.783581 12.1058C0.521717 12.1058 0.260073 12.0904 0 12.0597C1.50056 13.0307 3.24731 13.546 5.03127 13.544C11.0702 13.544 14.3715 8.51008 14.3715 4.1442C14.3715 4.00236 14.368 3.8591 14.3617 3.71726C15.0038 3.24988 15.5581 2.67111 15.9986 2.00807L16 2.00595Z" fill="white"/>
</svg>
