<svg width="32" height="31" viewBox="0 0 32 31" fill="none" xmlns="http://www.w3.org/2000/svg">
<path d="M6.03075 21.1687C6.21149 20.9882 6.45653 20.8867 6.71198 20.8867H30.2852C30.7146 20.8867 30.9296 21.406 30.6258 21.7095L25.9678 26.3638C25.7871 26.5444 25.5421 26.6459 25.2866 26.6459H1.71335C1.28392 26.6459 1.06894 26.1266 1.37272 25.823L6.03075 21.1687Z" fill="#00FFA3"/>
<path d="M6.03075 3.78984C6.21149 3.60925 6.45653 3.50781 6.71198 3.50781H30.2852C30.7146 3.50781 30.9296 4.02709 30.6258 4.33062L25.9678 8.98496C25.7871 9.16553 25.5421 9.26696 25.2866 9.26696H1.71335C1.28392 9.26696 1.06894 8.74768 1.37272 8.44417L6.03075 3.78984Z" fill="#00FFA3"/>
<path d="M25.9678 12.4578C25.7871 12.2772 25.5421 12.1758 25.2866 12.1758H1.71335C1.28392 12.1758 1.06894 12.695 1.37272 12.9986L6.03075 17.6529C6.21149 17.8335 6.45653 17.9349 6.71198 17.9349H30.2852C30.7146 17.9349 30.9296 17.4157 30.6258 17.1121L25.9678 12.4578Z" fill="#00FFA3"/>
</svg>
