<svg width="33" height="16" viewBox="0 0 33 16" fill="none" xmlns="http://www.w3.org/2000/svg">
<path fill-rule="evenodd" clip-rule="evenodd" d="M24.2605 6.69654C23.6023 6.03833 23.6023 4.97117 24.2605 4.31296C24.9187 3.65476 25.9858 3.65476 26.644 4.31296C27.3022 4.97117 27.3022 6.03833 26.644 6.69654C25.9858 7.35474 24.9187 7.35474 24.2605 6.69654ZM18.5995 12.3575C18.1058 11.8639 18.1058 11.0635 18.5995 10.5698C19.0931 10.0762 19.8935 10.0762 20.3872 10.5698C20.8808 11.0635 20.8808 11.8639 20.3872 12.3575C19.8935 12.8512 19.0931 12.8512 18.5995 12.3575ZM27.5379 9.37806C27.0442 8.8844 27.0442 8.08403 27.5379 7.59038C28.0315 7.09672 28.8319 7.09672 29.3256 7.59038C29.8192 8.08403 29.8192 8.8844 29.3256 9.37806C28.8319 9.87171 28.0315 9.87171 27.5379 9.37806ZM24.5584 12.3575C24.0648 11.8639 24.0648 11.0635 24.5584 10.5698C25.0521 10.0762 25.8524 10.0762 26.3461 10.5698C26.8397 11.0635 26.8397 11.8639 26.3461 12.3575C25.8524 12.8512 25.0521 12.8512 24.5584 12.3575ZM30.8153 12.0596C30.4862 11.7305 30.4862 11.1969 30.8153 10.8678C31.1444 10.5387 31.678 10.5387 32.0071 10.8678C32.3362 11.1969 32.3362 11.7305 32.0071 12.0596C31.678 12.3887 31.1444 12.3887 30.8153 12.0596ZM27.8358 15.039C27.5067 14.7099 27.5067 14.1764 27.8358 13.8473C28.1649 13.5182 28.6985 13.5182 29.0276 13.8473C29.3567 14.1764 29.3567 14.7099 29.0276 15.039C28.6985 15.3681 28.1649 15.3681 27.8358 15.039ZM21.281 9.67601C20.6228 9.0178 20.6228 7.95064 21.281 7.29243C21.9392 6.63423 23.0064 6.63423 23.6646 7.29243C24.3228 7.95064 24.3228 9.0178 23.6646 9.67601C23.0064 10.3342 21.9392 10.3342 21.281 9.67601ZM21.281 3.71707C20.6228 3.05887 20.6228 1.9917 21.281 1.3335C21.9392 0.675292 23.0064 0.675292 23.6646 1.3335C24.3228 1.9917 24.3228 3.05887 23.6646 3.71707C23.0064 4.37528 21.9392 4.37528 21.281 3.71707ZM18.3015 6.69654C17.6433 6.03833 17.6433 4.97117 18.3015 4.31296C18.9597 3.65476 20.0269 3.65476 20.6851 4.31296C21.3433 4.97117 21.3433 6.03833 20.6851 6.69654C20.0269 7.35474 18.9597 7.35474 18.3015 6.69654ZM12.3149 6.69654C11.6567 6.03833 11.6567 4.97117 12.3149 4.31296C12.9731 3.65476 14.0403 3.65476 14.6985 4.31296C15.3567 4.97117 15.3567 6.03833 14.6985 6.69654C14.0403 7.35474 12.9731 7.35474 12.3149 6.69654ZM6.65391 12.3575C6.16025 11.8639 6.16025 11.0635 6.65391 10.5698C7.14756 10.0762 7.94794 10.0762 8.44159 10.5698C8.93524 11.0635 8.93524 11.8639 8.44159 12.3575C7.94794 12.8512 7.14756 12.8512 6.65391 12.3575ZM15.5923 9.37806C15.0987 8.8844 15.0987 8.08403 15.5923 7.59038C16.086 7.09672 16.8863 7.09672 17.38 7.59038C17.8736 8.08403 17.8736 8.8844 17.38 9.37806C16.8863 9.87171 16.086 9.87171 15.5923 9.37806ZM12.6128 12.3575C12.1192 11.8639 12.1192 11.0635 12.6128 10.5698C13.1065 10.0762 13.9069 10.0762 14.4005 10.5698C14.8942 11.0635 14.8942 11.8639 14.4005 12.3575C13.9069 12.8512 13.1065 12.8512 12.6128 12.3575ZM0.992921 12.0596C0.663818 11.7305 0.663818 11.1969 0.992921 10.8678C1.32202 10.5387 1.85561 10.5387 2.18471 10.8678C2.51381 11.1969 2.51381 11.7305 2.18471 12.0596C1.85561 12.3887 1.32202 12.3887 0.992921 12.0596ZM3.97239 15.039C3.64329 14.7099 3.64329 14.1764 3.97239 13.8473C4.30149 13.5182 4.83507 13.5182 5.16418 13.8473C5.49328 14.1764 5.49328 14.7099 5.16418 15.039C4.83507 15.3681 4.30149 15.3681 3.97239 15.039ZM15.8903 15.039C15.5612 14.7099 15.5612 14.1764 15.8903 13.8473C16.2194 13.5182 16.7529 13.5182 17.082 13.8473C17.4111 14.1764 17.4111 14.7099 17.082 15.039C16.7529 15.3681 16.2194 15.3681 15.8903 15.039ZM3.67444 9.37806C3.18079 8.8844 3.18079 8.08403 3.67444 7.59038C4.1681 7.09672 4.96847 7.09672 5.46212 7.59038C5.95578 8.08403 5.95578 8.8844 5.46212 9.37806C4.96847 9.87171 4.1681 9.87171 3.67444 9.37806ZM9.33543 9.67601C8.67722 9.0178 8.67722 7.95064 9.33543 7.29243C9.99364 6.63423 11.0608 6.63423 11.719 7.29243C12.3772 7.95064 12.3772 9.0178 11.719 9.67601C11.0608 10.3342 9.99364 10.3342 9.33543 9.67601ZM9.33543 3.71707C8.67722 3.05887 8.67722 1.9917 9.33543 1.3335C9.99364 0.675292 11.0608 0.675292 11.719 1.3335C12.3772 1.9917 12.3772 3.05887 11.719 3.71707C11.0608 4.37528 9.99364 4.37528 9.33543 3.71707ZM6.35596 6.69654C5.69776 6.03833 5.69776 4.97117 6.35596 4.31296C7.01417 3.65476 8.08133 3.65476 8.73954 4.31296C9.39774 4.97117 9.39774 6.03833 8.73954 6.69654C8.08133 7.35474 7.01417 7.35474 6.35596 6.69654Z" fill="white"/>
</svg>
