<svg width="180" height="180" viewBox="0 0 180 180" fill="none" xmlns="http://www.w3.org/2000/svg">
<path d="M82.5 57.5C82.5 54.7386 84.7386 52.5 87.5 52.5H92.5C95.2614 52.5 97.5 54.7386 97.5 57.5V100C97.5 102.761 95.2614 105 92.5 105H87.5C84.7386 105 82.5 102.761 82.5 100V57.5ZM82.5 117.5C82.5 114.739 84.7386 112.5 87.5 112.5H92.5C95.2614 112.5 97.5 114.739 97.5 117.5V122.5C97.5 125.261 95.2614 127.5 92.5 127.5H87.5C84.7386 127.5 82.5 125.261 82.5 122.5V117.5Z" fill="#D44A4A"/>
<path d="M162.803 54.6975L125.303 17.1975C124.607 16.4997 123.781 15.9463 122.871 15.5691C121.961 15.192 120.985 14.9986 120 15H60C59.0149 14.9986 58.0393 15.192 57.1293 15.5691C56.2192 15.9463 55.3928 16.4997 54.6975 17.1975L17.1975 54.6975C16.4997 55.3928 15.9463 56.2192 15.5691 57.1293C15.192 58.0393 14.9986 59.0149 15 60V120C15 121.995 15.7875 123.9 17.1975 125.302L54.6975 162.802C55.3928 163.5 56.2192 164.054 57.1293 164.431C58.0393 164.808 59.0149 165.001 60 165H120C121.995 165 123.9 164.212 125.303 162.802L162.803 125.302C163.5 124.607 164.054 123.781 164.431 122.871C164.808 121.961 165.001 120.985 165 120V60C165.001 59.0149 164.808 58.0393 164.431 57.1293C164.054 56.2192 163.5 55.3928 162.803 54.6975ZM150 116.895L116.895 150H63.105L30 116.895V63.105L63.105 30H116.895L150 63.105V116.895Z" fill="#D44A4A"/>
</svg>
